<?xml version="1.0" encoding="UTF-8" standalone="no"?>
<!-- Created with Inkscape (http://www.inkscape.org/) -->

<svg
   width="240mm"
   height="120mm"
   viewBox="0 0 240 120"
   version="1.1"
   id="svg1409"
   inkscape:version="1.1 (c4e8f9e, 2021-05-24)"
   sodipodi:docname="Fill the gaps (inkscape).svg"
   xmlns:inkscape="http://www.inkscape.org/namespaces/inkscape"
   xmlns:sodipodi="http://sodipodi.sourceforge.net/DTD/sodipodi-0.dtd"
   xmlns="http://www.w3.org/2000/svg"
   xmlns:svg="http://www.w3.org/2000/svg">
  <sodipodi:namedview
     id="namedview1411"
     pagecolor="#ffffff"
     bordercolor="#666666"
     borderopacity="1.0"
     inkscape:pageshadow="2"
     inkscape:pageopacity="0.0"
     inkscape:pagecheckerboard="0"
     inkscape:document-units="mm"
     showgrid="false"
     inkscape:lockguides="false"
     inkscape:object-nodes="true"
     inkscape:zoom="1"
     inkscape:cx="486.49999"
     inkscape:cy="266.49999"
     inkscape:window-width="1920"
     inkscape:window-height="1027"
     inkscape:window-x="1280"
     inkscape:window-y="25"
     inkscape:window-maximized="1"
     inkscape:current-layer="layer1" />
  <defs
     id="defs1406">
    <clipPath
       clipPathUnits="userSpaceOnUse"
       id="clipPath14643">
      <g
         inkscape:label="Clip"
         id="use14645">
        <g
           id="g14705"
           transform="translate(22.092708,1.3229167)">
          <g
             id="g14703"
             transform="translate(88.992647,0.59640503)">
            <rect
               style="fill:#aa0000;stroke-width:0.673267"
               id="rect14695"
               width="13.518071"
               height="17.934868"
               x="50.09639"
               y="164.65849" />
            <rect
               style="fill:#ff0000;stroke-width:0.673267"
               id="rect14697"
               width="4.2829537"
               height="1.338423"
               x="50.09639"
               y="164.65849" />
            <rect
               style="fill:#ff0000;stroke-width:0.673267"
               id="rect14699"
               width="4.2829537"
               height="1.338423"
               x="59.331505"
               y="164.65849" />
            <rect
               style="fill:#800000;stroke-width:0.672235"
               id="rect14701"
               width="13.518071"
               height="11.64428"
               x="50.09639"
               y="170.94908" />
          </g>
        </g>
      </g>
    </clipPath>
  </defs>
  <g
     inkscape:groupmode="layer"
     id="layer2"
     inkscape:label="Template"
     style="display:none">
    <rect
       style="display:inline;fill:#ffff00;fill-opacity:0.544355;stroke-width:22.7269"
       id="rect997"
       width="240"
       height="120"
       x="172.84184"
       y="98.582077"
       transform="translate(-172.84184,-98.582078)" />
  </g>
  <g
     inkscape:label="Draw"
     inkscape:groupmode="layer"
     id="layer1"
     transform="translate(-172.84184,-98.582077)"
     style="display:inline">
    <g
       id="g1218"
       transform="matrix(1.1891439,0,0,1.1891439,-59.925107,-90.727234)">
      <rect
         style="fill:#666666;stroke-width:1.18352"
         id="rect1540"
         width="201.3983"
         height="100.69915"
         x="196.05852"
         y="159.30302"
         ry="16.469479" />
      <path
         id="path16323"
         style="fill:#f2f2f2;stroke-width:0.734325"
         d="m 370.24882,260.00217 h 1.49088 v -23.54706 c 0,-0.4491 -0.33187,-0.81094 -0.745,-0.81094 -0.41314,0 -0.74588,0.36184 -0.74588,0.81094 z" />
      <path
         id="path15238"
         style="fill:#f2f2f2;stroke-width:1.28573"
         d="m 374.07119,259.89503 h 7.02683 c 0.14249,0 0.28503,-0.001 0.42671,-0.006 0.14166,-0.003 0.28249,-0.01 0.42325,-0.0168 0.14081,-0.007 0.28171,-0.0151 0.42151,-0.026 0.1398,-0.01 0.27841,-0.0233 0.41715,-0.0372 0.13874,-0.0139 0.27689,-0.0294 0.41457,-0.0468 0.13763,-0.0175 0.27538,-0.0364 0.41196,-0.0572 0.13665,-0.0208 0.27219,-0.0436 0.40763,-0.0676 0.13541,-0.024 0.27078,-0.049 0.40503,-0.0764 0.1343,-0.0274 0.26766,-0.0571 0.4007,-0.0876 0.13304,-0.0306 0.26546,-0.0626 0.39722,-0.0964 0.13179,-0.0337 0.26244,-0.069 0.39287,-0.10596 0.13041,-0.0369 0.26033,-0.0754 0.38943,-0.11527 0.12902,-0.04 0.25739,-0.0819 0.38507,-0.12485 0.12777,-0.0432 0.25537,-0.0876 0.38162,-0.13361 0.12624,-0.046 0.25164,-0.0932 0.3764,-0.14232 0.12471,-0.049 0.24884,-0.0999 0.37206,-0.15172 0.12318,-0.0518 0.2452,-0.10472 0.36689,-0.1596 0.12166,-0.0549 0.24247,-0.11138 0.36251,-0.16913 0.12,-0.0578 0.23979,-0.11652 0.3582,-0.17693 0.11833,-0.0604 0.23543,-0.12236 0.35211,-0.1856 0.11666,-0.0633 0.23284,-0.12833 0.3478,-0.19426 0.11499,-0.066 0.2294,-0.13347 0.34259,-0.2021 0.11304,-0.0686 0.22513,-0.1386 0.3365,-0.20989 0.11124,-0.0714 0.22182,-0.14382 0.33131,-0.21768 0.10944,-0.0739 0.21765,-0.14818 0.32523,-0.22464 0.10763,-0.0764 0.2144,-0.1544 0.32003,-0.2333 0.10555,-0.0789 0.21033,-0.15893 0.31396,-0.24023 0.10375,-0.0814 0.2063,-0.16431 0.3079,-0.24804 0.10152,-0.0837 0.20231,-0.16885 0.30181,-0.255 0.0996,-0.0861 0.19749,-0.17343 0.29488,-0.26192 0.0974,-0.0885 0.19445,-0.17807 0.28968,-0.26886 0.0951,-0.0908 0.18885,-0.18278 0.28187,-0.27581 0.0931,-0.0931 0.18503,-0.18663 0.2758,-0.28186 0.0908,-0.0951 0.18039,-0.19141 0.26887,-0.28881 0.0885,-0.0974 0.17576,-0.19622 0.26191,-0.29574 0.0861,-0.0996 0.17121,-0.20022 0.25499,-0.30181 0.0837,-0.10153 0.16666,-0.20428 0.24804,-0.30791 0.0814,-0.10361 0.16128,-0.20834 0.24025,-0.31397 0.0789,-0.10555 0.15609,-0.21244 0.23243,-0.32002 0.0764,-0.10763 0.15172,-0.21575 0.2255,-0.32524 0.0739,-0.10943 0.14651,-0.21994 0.21769,-0.33129 0.0714,-0.11125 0.14132,-0.22335 0.20987,-0.33654 0.0686,-0.11304 0.1361,-0.2276 0.2021,-0.34257 0.066,-0.11499 0.13027,-0.23108 0.1934,-0.34778 0.0633,-0.11666 0.12499,-0.23372 0.18561,-0.35213 0.0604,-0.11832 0.12014,-0.23813 0.17778,-0.35818 0.0578,-0.11999 0.11347,-0.24087 0.16827,-0.36254 0.0549,-0.12166 0.10846,-0.24364 0.16045,-0.36687 0.0518,-0.12318 0.10277,-0.24731 0.15172,-0.37206 0.049,-0.12471 0.0961,-0.25017 0.14233,-0.37641 0.046,-0.12624 0.0904,-0.25305 0.1336,-0.38074 0.0429,-0.12777 0.0849,-0.256 0.12485,-0.38508 0.04,-0.12902 0.0786,-0.25899 0.11527,-0.38942 0.0369,-0.13041 0.0722,-0.26198 0.10596,-0.39375 0.0337,-0.1318 0.0658,-0.2642 0.0964,-0.39722 0.0306,-0.13305 0.0594,-0.26644 0.0868,-0.40068 0.0274,-0.1343 0.0532,-0.2696 0.0772,-0.40503 0.024,-0.13541 0.0468,-0.27105 0.0676,-0.40764 0.0208,-0.13666 0.0397,-0.27341 0.0572,-0.41109 0.0175,-0.13763 0.0329,-0.27668 0.0468,-0.41545 0.0139,-0.13874 0.0267,-0.27738 0.0372,-0.41716 0.01,-0.1398 0.019,-0.27989 0.026,-0.42064 0.007,-0.14081 0.0139,-0.28242 0.0168,-0.42411 0.003,-0.12957 0.003,-0.25912 0.006,-0.38942 -0.006,-3.91414 -3.15661,-7.06411 -7.07192,-7.06411 h -9.35118 c -3.91825,0 -7.0728,3.15456 -7.0728,7.07279 z" />
      <path
         id="rect15233"
         style="fill:#d35f5f;stroke-width:1.27504"
         d="m 344.42896,260.00464 c -0.006,-0.11679 -0.008,-0.23426 -0.008,-0.35249 V 243.3535 c 0,-3.85337 3.10217,-6.95554 6.95556,-6.95554 v 0 h 9.58539 c 3.85337,0 6.95552,3.10217 6.95552,6.95554 v 16.29865 c 0,0.11819 -0.003,0.23575 -0.008,0.35249" />
      <path
         id="path15811"
         style="fill:#999999;stroke-width:1.28573"
         d="m 219.66221,260.00588 h -7.02684 c -0.14266,0 -0.28503,-10e-4 -0.42672,-0.006 -0.14164,-0.003 -0.28249,-0.01 -0.42323,-0.0168 -0.14081,-0.007 -0.28175,-0.0151 -0.42152,-0.026 -0.1398,-0.01 -0.27841,-0.0233 -0.41716,-0.0372 -0.13874,-0.0139 -0.27687,-0.0293 -0.41455,-0.0468 -0.13763,-0.0175 -0.27539,-0.0364 -0.41199,-0.0572 -0.13666,-0.0208 -0.27217,-0.0436 -0.40761,-0.0676 -0.13541,-0.024 -0.27079,-0.049 -0.40503,-0.0764 -0.13429,-0.0274 -0.26766,-0.0571 -0.40069,-0.0876 -0.13305,-0.0306 -0.26547,-0.0626 -0.39724,-0.0964 -0.13179,-0.0337 -0.26244,-0.069 -0.39287,-0.10583 -0.13041,-0.0369 -0.26032,-0.0754 -0.38942,-0.11527 -0.12902,-0.04 -0.25738,-0.0819 -0.38507,-0.12485 -0.12777,-0.0429 -0.25537,-0.0875 -0.38162,-0.1336 -0.12625,-0.046 -0.25165,-0.0932 -0.37639,-0.14216 -0.12472,-0.049 -0.24885,-0.0999 -0.37209,-0.15171 -0.12319,-0.0521 -0.2452,-0.10472 -0.36686,-0.15961 -0.12166,-0.0549 -0.24247,-0.11139 -0.36252,-0.16913 -0.11999,-0.0578 -0.2398,-0.11652 -0.35821,-0.17693 -0.11832,-0.0604 -0.23541,-0.12236 -0.3521,-0.1856 -0.11666,-0.0633 -0.23284,-0.12819 -0.34781,-0.19427 -0.11499,-0.066 -0.22939,-0.13346 -0.34257,-0.20208 -0.11319,-0.0686 -0.22515,-0.1386 -0.33651,-0.2099 -0.11124,-0.0714 -0.22181,-0.14382 -0.33131,-0.21768 -0.10943,-0.0739 -0.21765,-0.14818 -0.32522,-0.22462 -0.10763,-0.0764 -0.21442,-0.15441 -0.32005,-0.23331 -0.10555,-0.0789 -0.21032,-0.15893 -0.31396,-0.24024 -0.10361,-0.0814 -0.20628,-0.16431 -0.30788,-0.24804 -0.10153,-0.0837 -0.20231,-0.16884 -0.30182,-0.255 -0.0996,-0.0861 -0.19748,-0.17343 -0.29488,-0.26191 -0.0974,-0.0885 -0.19444,-0.17808 -0.28967,-0.26887 -0.0951,-0.0908 -0.18885,-0.18276 -0.28189,-0.2758 -0.0929,-0.0929 -0.18501,-0.18664 -0.2758,-0.28187 -0.0908,-0.0951 -0.18037,-0.19142 -0.26885,-0.2888 -0.0885,-0.0973 -0.17578,-0.19623 -0.26193,-0.29575 -0.0861,-0.0996 -0.17119,-0.20023 -0.25498,-0.30182 -0.0837,-0.10152 -0.16665,-0.20425 -0.24804,-0.30789 -0.0814,-0.1036 -0.16129,-0.20835 -0.24024,-0.31397 -0.0789,-0.10554 -0.15609,-0.21245 -0.23245,-0.32003 -0.0764,-0.10763 -0.15171,-0.21575 -0.22549,-0.32524 -0.0739,-0.10944 -0.14636,-0.21994 -0.2177,-0.3313 -0.0714,-0.11124 -0.14131,-0.22334 -0.20987,-0.33653 -0.0686,-0.11304 -0.1361,-0.22761 -0.20208,-0.34257 -0.066,-0.11499 -0.13027,-0.23108 -0.19342,-0.34778 -0.0632,-0.11666 -0.12499,-0.23372 -0.1856,-0.35212 -0.0604,-0.11832 -0.12013,-0.23815 -0.17778,-0.35819 -0.0578,-0.11999 -0.11346,-0.24087 -0.16828,-0.36253 -0.0549,-0.12166 -0.1086,-0.24364 -0.16045,-0.36688 -0.0521,-0.12318 -0.10263,-0.24729 -0.15171,-0.37206 -0.049,-0.12471 -0.0962,-0.25016 -0.14232,-0.37641 -0.046,-0.12625 -0.0904,-0.25306 -0.1336,-0.38073 -0.0429,-0.12777 -0.0849,-0.25599 -0.12485,-0.3851 -0.04,-0.12901 -0.0785,-0.25895 -0.11527,-0.3894 -0.0369,-0.13041 -0.0719,-0.26199 -0.10583,-0.39376 -0.0337,-0.1318 -0.0657,-0.26418 -0.0964,-0.39721 -0.0306,-0.13305 -0.0594,-0.26643 -0.0868,-0.40069 -0.0274,-0.1343 -0.0532,-0.2696 -0.0772,-0.40503 -0.024,-0.13541 -0.0468,-0.27104 -0.0676,-0.40764 -0.0208,-0.13666 -0.0397,-0.2734 -0.0572,-0.41108 -0.0175,-0.13763 -0.0329,-0.27669 -0.0468,-0.41544 -0.0139,-0.13874 -0.0267,-0.2774 -0.0372,-0.41718 -0.01,-0.1398 -0.019,-0.27989 -0.026,-0.42064 -0.007,-0.14081 -0.0139,-0.28242 -0.0168,-0.42411 -0.003,-0.12957 -0.003,-0.25911 -0.006,-0.3894 0.006,-3.91416 3.15662,-7.06413 7.07193,-7.06413 h 9.35117 c 3.91824,0 7.0728,3.15456 7.0728,7.07279 z" />
      <path
         id="path16408"
         style="fill:#f2f2f2;stroke-width:0.734325"
         d="m 221.99429,260.00217 h 1.49089 v -23.54706 c 0,-0.4491 -0.33187,-0.81094 -0.74501,-0.81094 -0.41314,0 -0.74588,0.36184 -0.74588,0.81094 z" />
      <path
         id="path16410"
         style="fill:#f2f2f2;stroke-width:0.734325"
         d="m 251.64519,260.00217 h 1.4909 v -23.54706 c 0,-0.4491 -0.33188,-0.81094 -0.74502,-0.81094 -0.41313,0 -0.74588,0.36184 -0.74588,0.81094 z" />
      <path
         id="path16412"
         style="fill:#f2f2f2;stroke-width:0.734325"
         d="m 281.2961,260.00217 h 1.49088 v -23.54706 c 0,-0.4491 -0.33186,-0.81094 -0.745,-0.81094 -0.41314,0 -0.74588,0.36184 -0.74588,0.81094 z" />
      <path
         id="path16414"
         style="fill:#f2f2f2;stroke-width:0.734325"
         d="m 310.947,260.00217 h 1.49088 v -23.54706 c 0,-0.4491 -0.33187,-0.81094 -0.74501,-0.81094 -0.41313,0 -0.74587,0.36184 -0.74587,0.81094 z" />
      <path
         id="path16416"
         style="fill:#f2f2f2;stroke-width:0.734325"
         d="m 340.59791,260.00217 h 1.49088 v -23.54706 c 0,-0.4491 -0.33187,-0.81094 -0.74499,-0.81094 -0.41314,0 -0.74589,0.36184 -0.74589,0.81094 z" />
      <path
         id="path16921"
         style="fill:#00ff00;stroke-width:1.27504"
         d="m 225.82568,260.00464 c -0.006,-0.11679 -0.008,-0.23426 -0.008,-0.35249 V 243.3535 c 0,-3.85337 3.10216,-6.95554 6.95553,-6.95554 v 0 h 9.58541 c 3.85336,0 6.95553,3.10217 6.95553,6.95554 v 16.29865 c 0,0.11819 -0.003,0.23575 -0.008,0.35249" />
      <path
         id="path16923"
         style="fill:#ff00ff;stroke-width:1.27504"
         d="m 255.47659,260.00464 c -0.006,-0.11679 -0.008,-0.23426 -0.008,-0.35249 V 243.3535 c 0,-3.85337 3.10216,-6.95554 6.95553,-6.95554 v 0 h 9.58541 c 3.85336,0 6.95553,3.10217 6.95553,6.95554 v 16.29865 c 0,0.11819 -0.003,0.23575 -0.008,0.35249" />
      <path
         id="path16927"
         style="fill:#ffdd55;stroke-width:1.27504"
         d="m 314.77806,260.00464 c -0.006,-0.11679 -0.008,-0.23426 -0.008,-0.35249 V 243.3535 c 0,-3.85337 3.10215,-6.95554 6.95552,-6.95554 v 0 h 9.58541 c 3.85337,0 6.95554,3.10217 6.95554,6.95554 v 16.29865 c 0,0.11819 -0.003,0.23575 -0.008,0.35249" />
      <g
         id="g17517"
         transform="matrix(1.6783192,0,0,1.6783192,86.71886,-41.768962)"
         style="fill:#ffffff">
        <rect
           style="fill:#ffffff;stroke-width:1.13628"
           id="rect12556"
           width="16.427059"
           height="4.9698792"
           x="80.996864"
           y="147.14491"
           ry="2.4849396" />
        <path
           sodipodi:type="star"
           style="fill:#ffffff;stroke-width:3.77953"
           id="path12580"
           inkscape:flatsided="false"
           sodipodi:sides="3"
           sodipodi:cx="-140.50281"
           sodipodi:cy="464.33545"
           sodipodi:r1="35.080971"
           sodipodi:r2="17.540485"
           sodipodi:arg1="0.81569192"
           sodipodi:arg2="1.8628895"
           inkscape:rounded="0"
           inkscape:randomized="0"
           d="m -116.45955,489.88141 -29.09417,-8.74843 -29.09417,-8.74844 22.12345,-20.82207 22.12346,-20.82208 6.97071,29.57051 z"
           transform="matrix(0.05885655,0.18062334,-0.20679698,0.05140727,201.35099,151.05421)"
           inkscape:transform-center-x="-1.6390365"
           inkscape:transform-center-y="0.719015" />
        <g
           id="g17509"
           transform="matrix(0.78868141,0,0,0.78868141,-45.152023,26.063679)"
           style="fill:#ffffff">
          <rect
             style="fill:#ffffff;stroke-width:1.13628"
             id="rect17500"
             width="16.427059"
             height="4.9698792"
             x="226.7401"
             y="39.37767"
             ry="2.4849396"
             transform="rotate(30)" />
          <rect
             style="fill:#ffffff;stroke-width:1.13628"
             id="rect17502"
             width="16.427059"
             height="4.9698792"
             x="70.120979"
             y="227.05235"
             ry="2.4849396"
             transform="rotate(-30)" />
          <rect
             style="fill:#ffffff;stroke-width:1.13628"
             id="rect17504"
             width="16.427059"
             height="4.9698792"
             x="-164.92101"
             y="175.0963"
             ry="2.4849396"
             transform="rotate(-90)" />
        </g>
      </g>
      <path
         id="path17753"
         style="fill:#ff5555;stroke-width:1.27504"
         d="m 380.90966,236.43508 c -2.95121,0.0361 -5.44177,1.89519 -6.41971,4.5056 h 6.41971 z m 9.75969,0 v 4.5056 h 6.4197 c -0.9779,-2.6105 -3.46835,-4.46971 -6.4197,-4.5056 z" />
      <path
         id="path18254"
         style="fill:#ff5555;stroke-width:1.27504"
         d="m 351.37612,236.39796 c -2.95121,0.0361 -5.44177,1.89519 -6.41973,4.5056 h 6.41973 z m 9.75967,0 v 4.5056 h 6.4197 c -0.9779,-2.6105 -3.46834,-4.46973 -6.4197,-4.5056 z" />
      <path
         id="path18364"
         style="fill:#ff5555;stroke-width:1.27504"
         d="m 321.7252,236.39796 c -2.95121,0.0361 -5.44177,1.89519 -6.41973,4.5056 h 6.41973 z m 9.75967,0 v 4.5056 h 6.41971 c -0.9779,-2.6105 -3.46835,-4.46973 -6.41971,-4.5056 z" />
      <path
         id="path18366"
         style="fill:#ff5555;stroke-width:1.27504"
         d="m 262.42338,236.39796 c -2.95121,0.0361 -5.44176,1.89519 -6.41972,4.5056 h 6.41972 z m 9.75968,0 v 4.5056 h 6.4197 c -0.9779,-2.6105 -3.46835,-4.46973 -6.4197,-4.5056 z" />
      <path
         id="path18368"
         style="fill:#ff5555;stroke-width:1.27504"
         d="m 232.77248,236.39796 c -2.95121,0.0361 -5.44177,1.89519 -6.41973,4.5056 h 6.41973 z m 9.75967,0 v 4.5056 h 6.41972 c -0.97791,-2.6105 -3.46836,-4.46973 -6.41972,-4.5056 z" />
      <path
         id="path18370"
         style="fill:#ff5555;stroke-width:1.27504"
         d="m 202.88913,236.71195 c -2.95121,0.0361 -5.44176,1.89519 -6.41972,4.5056 h 6.41972 z m 9.75968,0 v 4.5056 h 6.4197 c -0.9779,-2.6105 -3.46835,-4.46971 -6.4197,-4.5056 z" />
      <rect
         style="fill:#000000;fill-opacity:0.278226;stroke-width:1.30428"
         id="rect18412"
         width="23.496471"
         height="11.748236"
         x="255.47661"
         y="248.24872"
         ry="0" />
      <rect
         style="fill:#000000;fill-opacity:0.278226;stroke-width:1.30428"
         id="rect18908"
         width="23.496471"
         height="11.748236"
         x="314.76126"
         y="248.25642"
         ry="0" />
      <rect
         style="fill:#000000;fill-opacity:0.278226;stroke-width:1.30428"
         id="rect18910"
         width="23.496471"
         height="11.748236"
         x="344.41217"
         y="248.25642"
         ry="0" />
      <rect
         style="fill:#000000;fill-opacity:0.278226;stroke-width:1.30428"
         id="rect18948"
         width="23.496471"
         height="11.748236"
         x="225.8257"
         y="248.25642"
         ry="0" />
      <path
         id="path19112"
         style="fill:#f2f2f2;stroke-width:0.734325"
         d="m 223.06365,159.31075 h -1.49088 v 23.54708 c 0,0.44908 0.33186,0.81093 0.745,0.81093 0.41314,0 0.74588,-0.36185 0.74588,-0.81093 z" />
      <path
         id="path19114"
         style="fill:#f2f2f2;stroke-width:1.28573"
         d="m 219.24128,159.4179 h -7.02684 c -0.14249,0 -0.28502,0.001 -0.4267,0.006 -0.14166,0.003 -0.2825,0.01 -0.42325,0.0168 -0.14081,0.007 -0.28172,0.0151 -0.4215,0.026 -0.13981,0.01 -0.27842,0.0233 -0.41717,0.0372 -0.13874,0.0139 -0.27688,0.0294 -0.41456,0.0468 -0.13763,0.0175 -0.27539,0.0364 -0.41196,0.0572 -0.13666,0.0208 -0.27219,0.0436 -0.40764,0.0676 -0.13541,0.024 -0.27077,0.049 -0.40503,0.0764 -0.13429,0.0274 -0.26764,0.0571 -0.40069,0.0876 -0.13305,0.0306 -0.26545,0.0626 -0.39722,0.0964 -0.1318,0.0337 -0.26244,0.069 -0.39288,0.10597 -0.1304,0.0369 -0.26033,0.0754 -0.38943,0.11527 -0.12902,0.04 -0.25738,0.0819 -0.38507,0.12485 -0.12777,0.0432 -0.25537,0.0876 -0.38161,0.1336 -0.12624,0.046 -0.25165,0.0932 -0.3764,0.14232 -0.12472,0.049 -0.24885,0.0999 -0.37206,0.15173 -0.12319,0.0518 -0.24521,0.10471 -0.36689,0.1596 -0.12166,0.0549 -0.24246,0.11138 -0.36252,0.16913 -0.11999,0.0578 -0.23979,0.11652 -0.35819,0.17693 -0.11833,0.0604 -0.23542,0.12235 -0.35212,0.1856 -0.11666,0.0633 -0.23283,0.12846 -0.34779,0.19427 -0.115,0.066 -0.2294,0.13347 -0.34259,0.20209 -0.11319,0.0686 -0.22514,0.1386 -0.33649,0.20988 -0.11124,0.0714 -0.22183,0.14384 -0.33132,0.21768 -0.10944,0.0739 -0.21766,0.1482 -0.32523,0.22464 -0.10763,0.0764 -0.2144,0.15441 -0.32003,0.2333 -0.10555,0.0789 -0.21034,0.15895 -0.31397,0.24024 -0.10374,0.0814 -0.20629,0.1643 -0.30789,0.24803 -0.10152,0.0838 -0.20231,0.16885 -0.30182,0.255 -0.0996,0.0861 -0.19748,0.17343 -0.29488,0.26194 -0.0974,0.0885 -0.19444,0.17806 -0.28967,0.26884 -0.0951,0.0908 -0.18885,0.1828 -0.28187,0.27582 -0.0929,0.0929 -0.18502,0.18662 -0.2758,0.28185 -0.0908,0.0951 -0.18039,0.19142 -0.26887,0.28881 -0.0885,0.0974 -0.17577,0.19623 -0.26191,0.29575 -0.0861,0.0996 -0.17121,0.20023 -0.255,0.30181 -0.0837,0.10152 -0.16665,0.20428 -0.24804,0.30791 -0.0814,0.1036 -0.16128,0.20833 -0.24024,0.31396 -0.0789,0.10555 -0.15609,0.21245 -0.23243,0.32002 -0.0764,0.10763 -0.15173,0.21575 -0.2255,0.32524 -0.0739,0.10944 -0.14652,0.21995 -0.21769,0.33131 -0.0714,0.11124 -0.14133,0.22333 -0.20988,0.33652 -0.0686,0.11305 -0.1361,0.22761 -0.20209,0.34257 -0.066,0.115 -0.13027,0.2311 -0.19341,0.34778 -0.0633,0.11666 -0.12499,0.23372 -0.18561,0.35213 -0.0604,0.11833 -0.12013,0.23814 -0.17778,0.35819 -0.0578,0.11999 -0.11346,0.24088 -0.16826,0.36254 -0.0549,0.12166 -0.10847,0.24364 -0.16045,0.36686 -0.0518,0.12319 -0.10277,0.24732 -0.15173,0.37206 -0.049,0.12471 -0.0961,0.25018 -0.14232,0.37642 -0.046,0.12624 -0.0904,0.25306 -0.1336,0.38075 -0.0429,0.12777 -0.0849,0.25598 -0.12485,0.38507 -0.04,0.12902 -0.0786,0.25898 -0.11527,0.38942 -0.0369,0.1304 -0.0722,0.26198 -0.10597,0.39375 -0.0337,0.13179 -0.0658,0.2642 -0.0964,0.39722 -0.0306,0.13304 -0.0594,0.26644 -0.0868,0.40068 -0.0274,0.13429 -0.0532,0.26959 -0.0772,0.40504 -0.024,0.13541 -0.0468,0.27104 -0.0676,0.40762 -0.0208,0.13666 -0.0397,0.27341 -0.0572,0.41111 -0.0175,0.13763 -0.0329,0.27666 -0.0468,0.41543 -0.0139,0.13874 -0.0267,0.2774 -0.0372,0.41717 -0.01,0.13979 -0.0189,0.27989 -0.026,0.42063 -0.007,0.14081 -0.0139,0.28243 -0.0168,0.42411 -0.003,0.12958 -0.003,0.25912 -0.006,0.38942 0.006,3.91414 3.15661,7.06411 7.07192,7.06411 h 9.35117 c 3.91825,0 7.07281,-3.15454 7.07281,-7.07278 z" />
      <path
         id="path19116"
         style="fill:#d35f5f;stroke-width:1.27504"
         d="m 248.88351,159.30828 c 0.006,0.1168 0.008,0.23426 0.008,0.35249 v 16.29866 c 0,3.85336 -3.10217,6.95554 -6.95553,6.95554 v 0 h -9.58541 c -3.85337,0 -6.95553,-3.10218 -6.95553,-6.95554 v -16.29866 c 0,-0.11819 0.003,-0.23573 0.008,-0.35249" />
      <path
         id="path19118"
         style="fill:#999999;stroke-width:1.28573"
         d="m 373.65026,159.30705 h 7.02682 c 0.14249,0 0.28505,0.001 0.42672,0.006 0.14164,0.003 0.2825,0.01 0.42324,0.0168 0.14081,0.007 0.28174,0.0151 0.42151,0.026 0.13979,0.01 0.27841,0.0233 0.41716,0.0372 0.13874,0.0139 0.27689,0.0294 0.41456,0.0468 0.13763,0.0175 0.27538,0.0364 0.41198,0.0572 0.13666,0.0208 0.27219,0.0436 0.40763,0.0676 0.1354,0.024 0.27075,0.049 0.40502,0.0764 0.1343,0.0274 0.26766,0.0571 0.40068,0.0876 0.13305,0.0305 0.26548,0.0626 0.39724,0.0964 0.1318,0.0337 0.26243,0.069 0.39289,0.10596 0.13041,0.0369 0.26033,0.0754 0.3894,0.11527 0.12902,0.04 0.25739,0.0819 0.38509,0.12485 0.12776,0.0429 0.25535,0.0875 0.38161,0.13361 0.12624,0.046 0.25163,0.0932 0.3764,0.14215 0.12471,0.049 0.24883,0.0999 0.37207,0.15173 0.12319,0.0521 0.24521,0.10471 0.36687,0.1596 0.12165,0.0549 0.24248,0.11152 0.36253,0.16913 0.11999,0.0578 0.2398,0.11652 0.35818,0.17693 0.11832,0.0604 0.23543,0.12235 0.35213,0.1856 0.11665,0.0633 0.23281,0.12818 0.34779,0.19426 0.11499,0.066 0.2294,0.13346 0.34257,0.2021 0.11319,0.0686 0.22517,0.1386 0.33651,0.20988 0.11124,0.0714 0.22182,0.14384 0.33131,0.21768 0.10944,0.0739 0.21766,0.1482 0.32524,0.22463 0.10763,0.0764 0.21441,0.1544 0.32003,0.2333 0.10555,0.0789 0.21032,0.15893 0.31397,0.24025 0.10374,0.0814 0.20629,0.1643 0.30788,0.24803 0.10152,0.0838 0.2023,0.16885 0.30182,0.255 0.0996,0.0861 0.19748,0.17343 0.29489,0.26191 0.0974,0.0885 0.19443,0.17809 0.28967,0.26887 0.0951,0.0908 0.18885,0.18277 0.28187,0.2758 0.0929,0.0929 0.18503,0.18664 0.27581,0.28187 0.0908,0.0951 0.18036,0.19142 0.26884,0.28881 0.0885,0.0974 0.17578,0.19623 0.26194,0.29575 0.0861,0.0996 0.1712,0.20023 0.25497,0.30181 0.0838,0.10152 0.16666,0.20426 0.24805,0.30789 0.0814,0.10361 0.1613,0.20835 0.24024,0.31397 0.0789,0.10555 0.15608,0.21246 0.23245,0.32003 0.0764,0.10763 0.15171,0.21575 0.22549,0.32524 0.0739,0.10944 0.14651,0.21995 0.21769,0.33131 0.0714,0.11124 0.14131,0.22333 0.20989,0.33652 0.0686,0.11319 0.1361,0.22761 0.20208,0.34257 0.066,0.115 0.13027,0.2311 0.19339,0.34778 0.0633,0.11666 0.12527,0.23372 0.18561,0.35212 0.0604,0.11832 0.12013,0.23815 0.17781,0.3582 0.0578,0.11999 0.11346,0.24087 0.16824,0.36254 0.0548,0.12166 0.1086,0.24362 0.16046,0.36686 0.0518,0.12319 0.10263,0.2473 0.15171,0.37206 0.049,0.12471 0.0962,0.25016 0.14232,0.37642 0.046,0.12624 0.0904,0.25305 0.1336,0.38072 0.0429,0.12777 0.0849,0.256 0.12486,0.3851 0.04,0.12902 0.0786,0.25897 0.11527,0.3894 0.0369,0.13041 0.0719,0.262 0.10596,0.39377 0.0337,0.13179 0.0658,0.26419 0.0964,0.3972 0.0306,0.13305 0.0594,0.26644 0.0868,0.4007 0.0274,0.13429 0.0532,0.26959 0.0772,0.40504 0.024,0.13541 0.0468,0.27102 0.0676,0.40762 0.0208,0.13666 0.0397,0.2734 0.0572,0.41108 0.0175,0.13763 0.0329,0.27669 0.0468,0.41545 0.0139,0.13874 0.0267,0.27741 0.0372,0.41718 0.01,0.13979 0.019,0.27989 0.026,0.42063 0.007,0.14081 0.0139,0.28243 0.0168,0.42411 0.003,0.12958 0.003,0.25912 0.006,0.38941 -0.006,3.91415 -3.15661,7.06412 -7.07193,7.06412 h -9.35117 c -3.91824,0 -7.0728,-3.15455 -7.0728,-7.07279 z" />
      <path
         id="path19120"
         style="fill:#f2f2f2;stroke-width:0.734325"
         d="m 371.31817,159.31075 h -1.49088 v 23.54708 c 0,0.44908 0.33187,0.81093 0.745,0.81093 0.41314,0 0.74588,-0.36185 0.74588,-0.81093 z" />
      <path
         id="path19122"
         style="fill:#f2f2f2;stroke-width:0.734325"
         d="m 341.66728,159.31075 h -1.4909 v 23.54708 c 0,0.44908 0.33188,0.81093 0.74502,0.81093 0.41312,0 0.74588,-0.36185 0.74588,-0.81093 z" />
      <path
         id="path19124"
         style="fill:#f2f2f2;stroke-width:0.734325"
         d="m 312.01635,159.31075 h -1.49087 v 23.54708 c 0,0.44908 0.33186,0.81093 0.74499,0.81093 0.41316,0 0.74588,-0.36185 0.74588,-0.81093 z" />
      <path
         id="path19126"
         style="fill:#f2f2f2;stroke-width:0.734325"
         d="m 282.36547,159.31075 h -1.49088 v 23.54708 c 0,0.44908 0.33186,0.81093 0.745,0.81093 0.41314,0 0.74588,-0.36185 0.74588,-0.81093 z" />
      <path
         id="path19128"
         style="fill:#f2f2f2;stroke-width:0.734325"
         d="m 252.71456,159.31075 h -1.49087 v 23.54708 c 0,0.44908 0.33185,0.81093 0.74499,0.81093 0.41313,0 0.74588,-0.36185 0.74588,-0.81093 z" />
      <path
         id="path19130"
         style="fill:#00ff00;stroke-width:1.27504"
         d="m 367.48679,159.30828 c 0.006,0.1168 0.008,0.23426 0.008,0.35249 v 16.29866 c 0,3.85336 -3.10217,6.95554 -6.95554,6.95554 v 0 h -9.5854 c -3.85336,0 -6.95553,-3.10218 -6.95553,-6.95554 v -16.29866 c 0,-0.11819 0.003,-0.23573 0.008,-0.35249" />
      <path
         id="path19132"
         style="fill:#ff00ff;stroke-width:1.27504"
         d="m 337.83589,159.30828 c 0.006,0.1168 0.008,0.23426 0.008,0.35249 v 16.29866 c 0,3.85336 -3.10217,6.95554 -6.95556,6.95554 v 0 h -9.58539 c -3.85337,0 -6.95552,-3.10218 -6.95552,-6.95554 v -16.29866 c 0,-0.11819 0.003,-0.23573 0.008,-0.35249" />
      <path
         id="path19134"
         style="fill:#ffdd55;stroke-width:1.27504"
         d="m 278.53441,159.30828 c 0.006,0.1168 0.008,0.23426 0.008,0.35249 v 16.29866 c 0,3.85336 -3.10216,6.95554 -6.95552,6.95554 v 0 h -9.58541 c -3.85337,0 -6.95554,-3.10218 -6.95554,-6.95554 v -16.29866 c 0,-0.11819 0.003,-0.23573 0.008,-0.35249" />
      <path
         id="path19136"
         style="fill:#ff5555;stroke-width:1.27504"
         d="m 212.4028,182.87784 c 2.95121,-0.0361 5.44177,-1.89518 6.41972,-4.5056 h -6.41972 z m -9.75967,0 v -4.5056 h -6.41971 c 0.9779,2.6105 3.46835,4.46973 6.41971,4.5056 z" />
      <path
         id="path19138"
         style="fill:#ff5555;stroke-width:1.27504"
         d="m 241.93636,182.91497 c 2.9512,-0.0361 5.44176,-1.89519 6.41972,-4.5056 h -6.41972 z m -9.75969,0 v -4.5056 h -6.4197 c 0.97791,2.61049 3.46834,4.46972 6.4197,4.5056 z" />
      <path
         id="path19140"
         style="fill:#ff5555;stroke-width:1.27504"
         d="m 271.58727,182.91497 c 2.95121,-0.0361 5.44177,-1.89519 6.41973,-4.5056 h -6.41973 z m -9.75967,0 v -4.5056 h -6.41972 c 0.97791,2.61049 3.46836,4.46972 6.41972,4.5056 z" />
      <path
         id="path19142"
         style="fill:#ff5555;stroke-width:1.27504"
         d="m 330.88908,182.91497 c 2.95119,-0.0361 5.44175,-1.89519 6.41971,-4.5056 h -6.41971 z m -9.75969,0 v -4.5056 h -6.4197 c 0.9779,2.61049 3.46834,4.46972 6.4197,4.5056 z" />
      <path
         id="path19144"
         style="fill:#ff5555;stroke-width:1.27504"
         d="m 360.53997,182.91497 c 2.95121,-0.0361 5.44177,-1.89519 6.41972,-4.5056 h -6.41972 z m -9.75968,0 v -4.5056 h -6.4197 c 0.9779,2.61049 3.46835,4.46972 6.4197,4.5056 z" />
      <path
         id="path19146"
         style="fill:#ff5555;stroke-width:1.27504"
         d="m 390.42334,182.60097 c 2.95121,-0.0361 5.44175,-1.89518 6.41971,-4.5056 h -6.41971 z m -9.75969,0 v -4.5056 h -6.4197 c 0.97791,2.6105 3.46835,4.46972 6.4197,4.5056 z" />
      <rect
         style="fill:#000000;fill-opacity:0.278226;stroke-width:1.30428"
         id="rect19148"
         width="23.496471"
         height="11.748236"
         x="-337.83591"
         y="-171.06422"
         ry="0"
         transform="scale(-1)" />
      <rect
         style="fill:#000000;fill-opacity:0.278226;stroke-width:1.30428"
         id="rect19150"
         width="23.496471"
         height="11.748236"
         x="-278.55121"
         y="-171.0565"
         ry="0"
         transform="scale(-1)" />
      <rect
         style="fill:#000000;fill-opacity:0.278226;stroke-width:1.30428"
         id="rect19152"
         width="23.496471"
         height="11.748236"
         x="-248.9003"
         y="-171.0565"
         ry="0"
         transform="scale(-1)" />
      <rect
         style="fill:#000000;fill-opacity:0.278226;stroke-width:1.30428"
         id="rect19154"
         width="23.496471"
         height="11.748236"
         x="-367.48682"
         y="-171.0565"
         ry="0"
         transform="scale(-1)" />
      <path
         id="path19236"
         style="fill:#d35f5f;stroke-width:1.27504"
         d="m 307.94286,159.30828 c 0.006,0.1168 0.008,0.23426 0.008,0.35249 v 16.29866 c 0,3.85336 -3.10217,6.95554 -6.95555,6.95554 v 0 h -9.58539 c -3.85337,0 -6.95552,-3.10218 -6.95552,-6.95554 v -16.29866 c 0,-0.11819 0.003,-0.23573 0.008,-0.35249" />
      <path
         id="path19238"
         style="fill:#ff5555;stroke-width:1.27504"
         d="m 300.9957,182.91497 c 2.95121,-0.0361 5.44177,-1.89519 6.41973,-4.5056 h -6.41973 z m -9.75967,0 v -4.5056 h -6.41971 c 0.97791,2.61049 3.46834,4.46972 6.41971,4.5056 z" />
      <rect
         style="fill:#000000;fill-opacity:0.278226;stroke-width:1.30428"
         id="rect19240"
         width="23.496471"
         height="11.748236"
         x="-307.95963"
         y="-171.0565"
         ry="0"
         transform="scale(-1)" />
      <path
         id="path19270"
         style="fill:#000000;fill-opacity:0.278226;stroke-width:1.30427"
         d="m 373.96019,260.00217 h 7.02683 c 0.28513,0 0.56846,-0.007 0.84995,-0.0217 0.28148,-0.0139 0.56119,-0.0353 0.83868,-0.0633 0.27748,-0.0281 0.55335,-0.0626 0.82654,-0.10402 0.27316,-0.0415 0.54414,-0.0893 0.81264,-0.14401 0.2685,-0.0547 0.5344,-0.11638 0.79791,-0.18386 0.26352,-0.0675 0.52413,-0.14114 0.78231,-0.22116 0.25816,-0.0799 0.5142,-0.16633 0.76668,-0.25844 0.2525,-0.0921 0.50202,-0.19013 0.74849,-0.29404 0.24645,-0.10388 0.48927,-0.21333 0.72939,-0.3287 0.24011,-0.11527 0.47691,-0.23605 0.7103,-0.36253 0.2334,-0.12652 0.46402,-0.25909 0.69038,-0.39635 0.22636,-0.13735 0.44883,-0.27988 0.66781,-0.42756 0.21898,-0.1477 0.43402,-0.30015 0.64526,-0.45794 0.21128,-0.15776 0.41867,-0.32074 0.62186,-0.48829 0.2032,-0.1675 0.40191,-0.33995 0.5967,-0.51691 0.1948,-0.17697 0.3855,-0.35862 0.57154,-0.54465 0.18607,-0.18607 0.3677,-0.37591 0.54467,-0.57068 0.17697,-0.19481 0.34937,-0.39438 0.51691,-0.59757 0.16749,-0.2032 0.33049,-0.4106 0.48828,-0.62188 0.15777,-0.21124 0.31025,-0.42627 0.45794,-0.64526 0.14769,-0.21897 0.29032,-0.44144 0.42758,-0.66781 0.13736,-0.22636 0.269,-0.45695 0.39548,-0.69037 0.12652,-0.2334 0.24804,-0.47021 0.36339,-0.71031 0.11527,-0.24009 0.22482,-0.48294 0.32871,-0.72939 0.10388,-0.24647 0.20193,-0.49599 0.29401,-0.74849 0.0921,-0.25248 0.1785,-0.50763 0.25847,-0.76581 0.0192,-0.0618 0.0346,-0.12527 0.0529,-0.18733 h -22.8116 z" />
      <path
         id="path19353"
         style="fill:#000000;fill-opacity:0.278226;stroke-width:1.30427"
         d="m 219.66221,260.00588 h -7.02684 c -0.28513,0 -0.56847,-0.007 -0.84995,-0.0217 -0.28147,-0.0139 -0.56117,-0.0353 -0.83868,-0.0633 -0.27749,-0.0281 -0.55335,-0.0626 -0.82654,-0.10402 -0.27316,-0.0415 -0.54413,-0.0893 -0.81264,-0.144 -0.26851,-0.0547 -0.5344,-0.11638 -0.79793,-0.18386 -0.26349,-0.0675 -0.52411,-0.14114 -0.78229,-0.22117 -0.25816,-0.0798 -0.5142,-0.16632 -0.76669,-0.25844 -0.25249,-0.0921 -0.502,-0.19012 -0.74847,-0.29403 -0.24646,-0.10388 -0.48929,-0.21335 -0.72939,-0.3287 -0.24011,-0.11527 -0.47692,-0.23605 -0.71031,-0.36253 -0.23341,-0.12652 -0.46402,-0.25909 -0.69038,-0.39635 -0.22636,-0.13735 -0.44883,-0.27988 -0.66782,-0.42756 -0.21897,-0.1477 -0.43399,-0.30016 -0.64527,-0.45796 -0.21125,-0.15775 -0.41865,-0.32073 -0.62184,-0.48827 -0.2032,-0.1675 -0.40191,-0.33995 -0.5967,-0.51691 -0.1948,-0.17697 -0.38549,-0.35861 -0.57156,-0.54465 -0.18605,-0.18607 -0.36768,-0.37591 -0.54465,-0.57069 -0.17699,-0.1948 -0.34935,-0.39438 -0.51691,-0.59756 -0.1675,-0.2032 -0.33049,-0.4106 -0.48828,-0.62188 -0.15777,-0.21125 -0.31025,-0.42627 -0.45794,-0.64526 -0.14769,-0.21897 -0.29032,-0.44147 -0.42757,-0.66781 -0.13721,-0.22636 -0.26901,-0.45696 -0.3955,-0.69037 -0.12652,-0.2334 -0.24804,-0.4702 -0.36338,-0.71031 -0.11527,-0.24009 -0.22482,-0.48294 -0.32873,-0.72939 -0.10388,-0.24647 -0.2019,-0.496 -0.294,-0.74849 -0.0921,-0.25248 -0.17849,-0.50763 -0.25846,-0.76581 -0.0192,-0.0618 -0.0346,-0.12527 -0.0529,-0.18733 h 22.81161 z" />
      <path
         id="path19355"
         style="fill:#000000;fill-opacity:0.278226;stroke-width:1.30427"
         d="m 373.65026,159.30705 h 7.02682 c 0.28513,0 0.56846,0.007 0.84996,0.0217 0.28148,0.0139 0.56118,0.0353 0.83867,0.0633 0.27751,0.028 0.55335,0.0626 0.82654,0.10402 0.27318,0.0414 0.54414,0.0893 0.81265,0.144 0.26853,0.0547 0.5344,0.11638 0.79792,0.18387 0.26351,0.0675 0.52413,0.14114 0.78229,0.22116 0.25818,0.0799 0.5142,0.16632 0.7667,0.25846 0.25248,0.0921 0.502,0.19011 0.74847,0.29402 0.24646,0.10388 0.4893,0.21333 0.7294,0.3287 0.2401,0.11526 0.47691,0.23605 0.71031,0.36253 0.23341,0.12651 0.46401,0.25909 0.69036,0.39634 0.22636,0.13735 0.44885,0.27989 0.66782,0.42758 0.219,0.14769 0.43402,0.30013 0.64527,0.45793 0.21127,0.15775 0.41867,0.32074 0.62185,0.48828 0.20319,0.16751 0.4019,0.33995 0.59671,0.51691 0.19479,0.17698 0.3855,0.35863 0.57155,0.54467 0.18604,0.18606 0.36768,0.37589 0.54466,0.57067 0.17697,0.19481 0.34935,0.39438 0.51691,0.59757 0.1675,0.20319 0.33049,0.4106 0.4883,0.62187 0.15775,0.21125 0.31021,0.42628 0.45792,0.64526 0.14769,0.21897 0.29031,0.44146 0.42757,0.66782 0.13721,0.22636 0.26902,0.45696 0.39547,0.69036 0.12652,0.2334 0.24807,0.47022 0.36342,0.71032 0.11527,0.2401 0.2248,0.48293 0.3287,0.72939 0.10388,0.24647 0.20191,0.496 0.29402,0.74849 0.0921,0.25248 0.17849,0.50764 0.25844,0.76582 0.0192,0.0618 0.0346,0.12527 0.0529,0.18733 h -22.81161 z" />
      <path
         id="path19357"
         style="fill:#000000;fill-opacity:0.278226;stroke-width:1.30427"
         d="m 219.24128,159.4179 h -7.02682 c -0.28512,0 -0.56846,0.007 -0.84994,0.0217 -0.2815,0.0139 -0.56119,0.0353 -0.83868,0.0633 -0.27751,0.0281 -0.55337,0.0626 -0.82654,0.10402 -0.27318,0.0415 -0.54414,0.0893 -0.81267,0.14401 -0.2685,0.0547 -0.53439,0.11638 -0.7979,0.18386 -0.26351,0.0675 -0.52414,0.14114 -0.78229,0.22116 -0.25818,0.0799 -0.51421,0.16633 -0.7667,0.25846 -0.25248,0.0921 -0.50202,0.19011 -0.74847,0.29402 -0.24647,0.10388 -0.4893,0.21333 -0.72941,0.3287 -0.24009,0.11527 -0.47691,0.23605 -0.71031,0.36253 -0.2334,0.12652 -0.46401,0.25909 -0.69035,0.39635 -0.22636,0.13735 -0.44886,0.27988 -0.66783,0.42756 -0.21898,0.1477 -0.43401,0.30015 -0.64526,0.45794 -0.21126,0.15776 -0.41868,0.32074 -0.62185,0.48829 -0.20319,0.1675 -0.40191,0.33995 -0.59672,0.51691 -0.19478,0.17697 -0.38548,0.35862 -0.57154,0.54467 -0.18604,0.18605 -0.36768,0.37589 -0.54467,0.57066 -0.17696,0.19481 -0.34934,0.39438 -0.51691,0.59757 -0.16749,0.2032 -0.33049,0.4106 -0.48828,0.62188 -0.15777,0.21124 -0.31022,0.42627 -0.45793,0.64526 -0.1477,0.21897 -0.29031,0.44144 -0.42757,0.66781 -0.13735,0.22636 -0.26902,0.45697 -0.39548,0.69037 -0.12652,0.2334 -0.24805,0.47021 -0.36341,0.71031 -0.11527,0.24011 -0.22482,0.48294 -0.3287,0.72939 -0.10388,0.24647 -0.20191,0.49599 -0.29402,0.74849 -0.0921,0.25248 -0.17848,0.50765 -0.25845,0.76581 -0.0192,0.0618 -0.0346,0.12527 -0.0529,0.18733 h 22.81161 z" />
    </g>
  </g>
</svg>
