<?xml version="1.0" encoding="UTF-8" standalone="no"?>
<svg
   width="70mm"
   height="70mm"
   version="1.1"
   viewBox="0 0 70 70"
   id="svg35"
   sodipodi:docname="Moon(inkscape).svg"
   inkscape:version="1.1 (c4e8f9e, 2021-05-24)"
   xmlns:inkscape="http://www.inkscape.org/namespaces/inkscape"
   xmlns:sodipodi="http://sodipodi.sourceforge.net/DTD/sodipodi-0.dtd"
   xmlns="http://www.w3.org/2000/svg"
   xmlns:svg="http://www.w3.org/2000/svg">
  <defs
     id="defs39" />
  <sodipodi:namedview
     id="namedview37"
     pagecolor="#ffffff"
     bordercolor="#666666"
     borderopacity="1.0"
     inkscape:pageshadow="2"
     inkscape:pageopacity="0.0"
     inkscape:pagecheckerboard="0"
     inkscape:document-units="mm"
     showgrid="false"
     inkscape:zoom="0.8815542"
     inkscape:cx="-28.926185"
     inkscape:cy="253.5295"
     inkscape:window-width="1312"
     inkscape:window-height="747"
     inkscape:window-x="0"
     inkscape:window-y="56"
     inkscape:window-maximized="1"
     inkscape:current-layer="svg35" />
  <circle
     cx="35"
     cy="35"
     r="35"
     style="fill:#838383;fill-opacity:0.2"
     id="circle11" />
  <circle
     cx="35"
     cy="35"
     r="31"
     style="fill:#838383;fill-opacity:0.2"
     id="circle13" />
  <circle
     cx="35"
     cy="35"
     r="27"
     style="fill:#ffffff"
     id="circle15" />
  <circle
     cx="31"
     cy="41"
     r="1"
     style="fill:#bbbbbb"
     id="circle17" />
  <circle
     cx="47"
     cy="24"
     r="0.60000002"
     style="fill:#f8f8f8"
     id="circle19" />
  <circle
     cx="40"
     cy="15"
     r="2"
     style="fill:#bbbbbb"
     id="circle21" />
  <circle
     cx="24"
     cy="26"
     r="1"
     style="fill:#bbbbbb"
     id="circle23" />
  <circle
     cx="49"
     cy="45"
     r="4"
     style="fill:#b8b8b8"
     id="circle25" />
  <circle
     cx="22"
     cy="51"
     r="1"
     style="fill:#bbbbbb"
     id="circle27" />
  <circle
     cx="17"
     cy="41"
     r="3"
     style="fill:#bbbbbb"
     id="circle29" />
  <circle
     cx="34"
     cy="50"
     r="3"
     style="fill:#bbbbbb"
     id="circle31" />
  <path
     d="M 23,11 A 27,27 0 0 0 8,35 27,27 0 0 0 35,62 27,27 0 0 0 49,58 27,27 0 0 1 37,61 27,27 0 0 1 10,34 27,27 0 0 1 23,11 Z"
     style="fill:#747474;fill-opacity:0.8"
     id="path33" />
</svg>
