<svg width="70mm" height="70mm" version="1.1" viewBox="0 0 70 70" xmlns="http://www.w3.org/2000/svg">
      <circle cx="35" cy="35" r="35" style="fill-opacity:.2;fill:#838383"/>
      <circle cx="35" cy="35" r="31" style="fill-opacity:.2;fill:#838383"/>
      <circle cx="35" cy="35" r="27" style="fill:#ffffff"/>
      <circle cx="31" cy="41" r="1" style="fill:#bbbbbb"/>
      <circle cx="47" cy="24" r=".6" style="fill:#f8f8f8"/>
      <circle cx="40" cy="15" r="2" style="fill:#bbbbbb"/>
      <circle cx="24" cy="26" r="1" style="fill:#bbbbbb"/>
      <circle cx="49" cy="45" r="4" style="fill:#b8b8b8"/>
      <circle cx="22" cy="51" r="1" style="fill:#bbbbbb"/>
      <circle cx="17" cy="41" r="3" style="fill:#bbbbbb"/>
      <circle cx="34" cy="50" r="3" style="fill:#bbbbbb"/>
      <path d="m23 11a27 27 0 0 0-15 24 27 27 0 0 0 27 27 27 27 0 0 0 14-4 27 27 0 0 1-12 3 27 27 0 0 1-27-27 27 27 0 0 1 13-23z" style="fill-opacity:.8;fill:#747474"/>
</svg>
