<svg width="120.25mm" height="60.002mm" version="1.1" viewBox="0 0 120.25 60.002" xmlns="http://www.w3.org/2000/svg">
      <g transform="translate(-33.608 -118.88)">
            <rect x="33.795" y="118.88" width="120" height="60" ry="9.8131" style="fill:#666666;stroke-width:.70518"/>
            <path d="m137.58 178.88h0.88832v-14.03c0-0.26758-0.19774-0.48318-0.4439-0.48318s-0.44442 0.2156-0.44442 0.48318z" style="fill:#f2f2f2;stroke-width:.43754"/>
            <path d="m139.86 178.82h4.1868c0.0849 0 0.16983-9.8e-4 0.25425-3e-3 0.0844-2e-3 0.16832-6e-3 0.25218-0.01 0.0839-4e-3 0.16786-9e-3 0.25115-0.0155 0.0833-6e-3 0.16589-0.0139 0.24856-0.0222 0.0827-8e-3 0.16497-0.0175 0.24701-0.0279 0.082-0.0104 0.16408-0.0217 0.24546-0.0341 0.0814-0.0124 0.16218-0.026 0.24288-0.0403s0.16134-0.0292 0.24133-0.0455c0.08-0.0163 0.15948-0.034 0.23875-0.0522 0.0793-0.0182 0.15817-0.0373 0.23668-0.0574 0.0785-0.0201 0.15637-0.0411 0.23409-0.0631 0.0777-0.022 0.15511-0.0449 0.23203-0.0687 0.0769-0.0238 0.15336-0.0488 0.22944-0.0744 0.0761-0.0257 0.15216-0.0522 0.22738-0.0796 0.0752-0.0274 0.14994-0.0555 0.22427-0.0848 0.0743-0.0292 0.14827-0.0595 0.22169-0.0904 0.0734-0.0309 0.1461-0.0624 0.2186-0.0951s0.14447-0.0664 0.216-0.10077c0.0715-0.0344 0.14288-0.0694 0.21343-0.10542 0.0705-0.036 0.14027-0.0729 0.2098-0.11059 0.0695-0.0377 0.13873-0.0765 0.20723-0.11575 0.0685-0.0393 0.13668-0.0795 0.20412-0.12041 0.0674-0.0409 0.13415-0.0826 0.2005-0.12506 0.0663-0.0425 0.13217-0.0857 0.19741-0.1297 0.0652-0.044 0.12968-0.0883 0.19378-0.13385 0.0641-0.0455 0.12775-0.092 0.19069-0.13901 0.0629-0.047 0.12532-0.0947 0.18707-0.14314 0.0618-0.0485 0.12291-0.0979 0.18345-0.14779 0.0605-0.0499 0.12054-0.1006 0.17983-0.15193 0.0593-0.0513 0.11767-0.10334 0.1757-0.15607 0.058-0.0527 0.11586-0.1061 0.1726-0.16019 0.0567-0.0541 0.11252-0.10891 0.16795-0.16434 0.0554-0.0554 0.11024-0.1112 0.16433-0.16794 0.0541-0.0567 0.10748-0.11405 0.1602-0.17208 0.0527-0.058 0.10473-0.11692 0.15606-0.17622 0.0513-0.0593 0.10201-0.1193 0.15193-0.17983 0.0499-0.0605 0.0993-0.12171 0.14779-0.18346 0.0485-0.0617 0.0961-0.12413 0.14315-0.18707 0.047-0.0629 0.093-0.12658 0.13849-0.19068 0.0455-0.0641 0.0904-0.12855 0.13436-0.19379 0.044-0.0652 0.0873-0.13105 0.12971-0.1974 0.0425-0.0663 0.0842-0.13307 0.12505-0.20051 0.0409-0.0674 0.0811-0.13562 0.12041-0.20412 0.0393-0.0685 0.0776-0.13769 0.11524-0.20722 0.0377-0.0695 0.0745-0.13926 0.11059-0.20981 0.036-0.0705 0.0716-0.14189 0.10593-0.21342 0.0344-0.0715 0.0676-0.14352 0.10026-0.21601 0.0327-0.0725 0.0646-0.14517 0.0956-0.21859 0.0309-0.0734 0.0612-0.14736 0.0904-0.22169 0.0292-0.0743 0.0573-0.14906 0.0848-0.22428 0.0274-0.0752 0.0539-0.15078 0.0796-0.22686 0.0256-0.0761 0.0506-0.15253 0.0744-0.22944 0.0238-0.0769 0.0468-0.15431 0.0687-0.23203 0.022-0.0777 0.043-0.1561 0.0631-0.23461 0.0201-0.0785 0.0392-0.15742 0.0574-0.23668 0.0182-0.0793 0.0354-0.15875 0.0517-0.23874 0.0163-0.08 0.0317-0.16063 0.046-0.24133s0.0279-0.1615 0.0403-0.24288c0.0124-0.0814 0.0237-0.16291 0.0341-0.24495 0.0104-0.082 0.0196-0.16485 0.0279-0.24753 8e-3 -0.0827 0.0159-0.16528 0.0222-0.24856 6e-3 -0.0833 0.0113-0.16677 0.0155-0.25063 4e-3 -0.0839 8e-3 -0.16828 0.01-0.2527 2e-3 -0.0772 2e-3 -0.15439 3e-3 -0.23203-3e-3 -2.3322-1.8808-4.209-4.2137-4.209h-5.5718c-2.3346 0-4.2142 1.8796-4.2142 4.2142z" style="fill:#f2f2f2;stroke-width:.76608"/>
            <path d="m122.2 178.88c-3e-3 -0.0696-5e-3 -0.13958-5e-3 -0.21002v-9.7113c0-2.296 1.8484-4.1444 4.1444-4.1444h5.7113c2.296 0 4.1443 1.8484 4.1443 4.1444v9.7113c0 0.0704-2e-3 0.14046-5e-3 0.21002" style="fill:#d35f5f;stroke-width:.75971"/>
            <path d="m47.859 178.88h-4.1868c-0.08495 0-0.16984-9.8e-4 -0.25425-3e-3 -0.08441-2e-3 -0.16832-6e-3 -0.25218-0.01-0.08386-4e-3 -0.16787-9e-3 -0.25115-0.0155-0.08328-6e-3 -0.16589-0.0139-0.24856-0.0222-0.08267-8e-3 -0.16497-0.0175-0.24701-0.0279-0.08204-0.0104-0.16408-0.0217-0.24546-0.0341-0.08138-0.0124-0.16218-0.026-0.24288-0.0403-0.0807-0.0143-0.16134-0.0292-0.24133-0.0455-0.08-0.0163-0.15948-0.034-0.23875-0.0522-0.07926-0.0182-0.15817-0.0373-0.23668-0.0574-0.0785-0.0201-0.15638-0.0411-0.2341-0.0631-0.07772-0.022-0.15511-0.0449-0.23203-0.0687-0.07691-0.0238-0.15336-0.0488-0.22944-0.0744-0.07608-0.0256-0.15216-0.0521-0.22738-0.0796-0.07522-0.0274-0.14994-0.0555-0.22428-0.0847-0.07433-0.0292-0.14826-0.0595-0.22169-0.0904-0.07342-0.031-0.1461-0.0624-0.21859-0.0951s-0.14448-0.0664-0.21601-0.10077c-0.07153-0.0344-0.14288-0.0694-0.21342-0.10542-0.07054-0.036-0.14027-0.0729-0.2098-0.11059-0.06954-0.0377-0.13873-0.0764-0.20722-0.11575-0.0685-0.0393-0.13669-0.0795-0.20412-0.12041-0.06744-0.0409-0.13416-0.0826-0.2005-0.12506-0.06635-0.0425-0.13217-0.0857-0.19741-0.1297-0.06524-0.044-0.12969-0.0883-0.19379-0.13384-0.0641-0.0455-0.12775-0.092-0.19068-0.13901-0.06294-0.047-0.12532-0.0947-0.18707-0.14315-0.06175-0.0485-0.12292-0.0979-0.18345-0.14779-0.06054-0.0499-0.12054-0.1006-0.17984-0.15193-0.0593-0.0513-0.11767-0.10334-0.1757-0.15606-0.05803-0.0527-0.11586-0.10611-0.1726-0.1602-0.05674-0.0541-0.11252-0.1089-0.16795-0.16433-0.05543-0.0554-0.11024-0.11121-0.16433-0.16795-0.05409-0.0567-0.10747-0.11405-0.1602-0.17208-0.05272-0.058-0.10473-0.11692-0.15606-0.17622-0.05133-0.0593-0.10201-0.1193-0.15193-0.17983-0.04992-0.0605-0.09932-0.1217-0.14779-0.18345-0.04848-0.0617-0.09613-0.12414-0.14314-0.18707-0.04701-0.0629-0.09297-0.12659-0.13849-0.19069-0.04552-0.0641-0.09036-0.12855-0.13436-0.19379-0.044-0.0652-0.08725-0.13105-0.12971-0.1974-0.04246-0.0663-0.08417-0.13307-0.12506-0.20051-0.04089-0.0674-0.08111-0.13562-0.12041-0.20412-0.0393-0.0685-0.07756-0.13769-0.11524-0.20722-0.03768-0.0695-0.07455-0.13926-0.11059-0.2098-0.03604-0.0705-0.07157-0.1419-0.10594-0.21343-0.03437-0.0715-0.06758-0.14352-0.10025-0.21601-0.03267-0.0725-0.06465-0.14516-0.0956-0.21859-0.03095-0.0734-0.06123-0.14735-0.09043-0.22169-0.02921-0.0743-0.05731-0.14905-0.08475-0.22428-0.02744-0.0752-0.05394-0.15078-0.07958-0.22685-0.02564-0.0761-0.05059-0.15253-0.07441-0.22945-0.02382-0.0769-0.04675-0.1543-0.06873-0.23202-0.02198-0.0777-0.04294-0.15611-0.06305-0.23462-0.0201-0.0785-0.03915-0.15741-0.05736-0.23667-0.01821-0.0793-0.03539-0.15875-0.05167-0.23875-0.01629-0.08-0.03166-0.16063-0.04599-0.24133-0.01434-0.0807-0.02794-0.16149-0.04031-0.24288-0.01237-0.0814-0.02374-0.1629-0.0341-0.24494-0.01037-0.082-0.01956-0.16486-0.02791-0.24753-0.0083-0.0827-0.01593-0.16529-0.02222-0.24857-0.0063-0.0833-0.01128-0.16677-0.0155-0.25063-0.0042-0.0839-0.0077-0.16828-0.0098-0.2527-0.0019-0.0772-0.0024-0.15439-0.0026-0.23202 0.0028-2.3322 1.8808-4.209 4.2137-4.209h5.5718c2.3346 0 4.2142 1.8796 4.2142 4.2142z" style="fill:#999999;stroke-width:.76608"/>
            <path d="m49.249 178.88h0.88832v-14.03c0-0.26758-0.19774-0.48318-0.4439-0.48318s-0.44442 0.2156-0.44442 0.48318z" style="fill:#f2f2f2;stroke-width:.43754"/>
            <path d="m66.916 178.88h0.88832v-14.03c0-0.26758-0.19774-0.48318-0.4439-0.48318s-0.44442 0.2156-0.44442 0.48318z" style="fill:#f2f2f2;stroke-width:.43754"/>
            <path d="m84.583 178.88h0.88832v-14.03c0-0.26758-0.19774-0.48318-0.4439-0.48318-0.24616 0-0.44442 0.2156-0.44442 0.48318z" style="fill:#f2f2f2;stroke-width:.43754"/>
            <path d="m102.25 178.88h0.88832v-14.03c0-0.26758-0.19774-0.48318-0.4439-0.48318s-0.44442 0.2156-0.44442 0.48318z" style="fill:#f2f2f2;stroke-width:.43754"/>
            <path d="m119.92 178.88h0.88831v-14.03c0-0.26758-0.19773-0.48318-0.44389-0.48318s-0.44442 0.2156-0.44442 0.48318z" style="fill:#f2f2f2;stroke-width:.43754"/>
            <path d="m51.531 178.88c-0.0034-0.0696-0.0052-0.13958-0.0052-0.21002v-9.7113c0-2.296 1.8484-4.1444 4.1443-4.1444h5.7113c2.296 0 4.1443 1.8484 4.1443 4.1444v9.7113c0 0.0704-0.0017 0.14046-0.0052 0.21002" style="fill:#00ff00;stroke-width:.75971"/>
            <path d="m69.198 178.88c-0.0034-0.0696-0.0052-0.13958-0.0052-0.21002v-9.7113c0-2.296 1.8484-4.1444 4.1443-4.1444h5.7113c2.296 0 4.1443 1.8484 4.1443 4.1444v9.7113c0 0.0704-0.0017 0.14046-0.0052 0.21002" style="fill:#ff00ff;stroke-width:.75971"/>
            <path d="m104.53 178.88c-3e-3 -0.0696-5e-3 -0.13958-5e-3 -0.21002v-9.7113c0-2.296 1.8484-4.1444 4.1443-4.1444h5.7113c2.296 0 4.1444 1.8484 4.1444 4.1444v9.7113c0 0.0704-2e-3 0.14046-5e-3 0.21002" style="fill:#ffdd55;stroke-width:.75971"/>
            <g transform="translate(-31.353 -.92604)" style="fill:#ffffff">
                  <rect x="80.997" y="147.14" width="16.427" height="4.9699" ry="2.4849" style="fill:#ffffff;stroke-width:1.1363"/>
                  <path transform="matrix(.058857 .18062 -.2068 .051407 201.35 151.05)" d="m-116.46 489.88-58.188-17.497 44.247-41.644 6.9707 29.571z" style="fill:#ffffff;stroke-width:3.7795"/>
                  <g transform="matrix(.78868 0 0 .78868 -45.152 26.064)" style="fill:#ffffff">
                        <rect transform="rotate(30)" x="226.74" y="39.378" width="16.427" height="4.9699" ry="2.4849" style="fill:#ffffff;stroke-width:1.1363"/>
                        <rect transform="rotate(-30)" x="70.121" y="227.05" width="16.427" height="4.9699" ry="2.4849" style="fill:#ffffff;stroke-width:1.1363"/>
                        <rect transform="rotate(-90)" x="-164.92" y="175.1" width="16.427" height="4.9699" ry="2.4849" style="fill:#ffffff;stroke-width:1.1363"/>
                  </g>
            </g>
            <path d="m143.94 164.84c-1.7584 0.0215-3.2424 1.1292-3.8251 2.6846h3.8251zm5.8152 0v2.6846h3.8251c-0.58267-1.5554-2.0666-2.6632-3.8251-2.6846z" style="fill:#ff5555;stroke-width:.75971"/>
            <path d="m126.34 164.82c-1.7584 0.0215-3.2424 1.1292-3.8251 2.6846h3.8251zm5.8152 0v2.6846h3.8251c-0.58267-1.5554-2.0666-2.6632-3.8251-2.6846z" style="fill:#ff5555;stroke-width:.75971"/>
            <path d="m108.67 164.82c-1.7584 0.0215-3.2424 1.1292-3.8251 2.6846h3.8251zm5.8152 0v2.6846h3.8251c-0.58267-1.5554-2.0666-2.6632-3.8251-2.6846z" style="fill:#ff5555;stroke-width:.75971"/>
            <path d="m73.338 164.82c-1.7584 0.0215-3.2424 1.1292-3.8251 2.6846h3.8251zm5.8152 0v2.6846h3.8251c-0.58267-1.5554-2.0666-2.6632-3.8251-2.6846z" style="fill:#ff5555;stroke-width:.75971"/>
            <path d="m55.671 164.82c-1.7584 0.0215-3.2424 1.1292-3.8251 2.6846h3.8251zm5.8152 0v2.6846h3.8251c-0.58267-1.5554-2.0666-2.6632-3.8251-2.6846z" style="fill:#ff5555;stroke-width:.75971"/>
            <path d="m37.865 165c-1.7584 0.0215-3.2424 1.1292-3.8251 2.6846h3.8251zm5.8152 0v2.6846h3.8251c-0.58267-1.5554-2.0666-2.6632-3.8251-2.6846z" style="fill:#ff5555;stroke-width:.75971"/>
            <rect x="69.198" y="171.88" width="14" height="7" ry="0" style="fill-opacity:.27823;fill:#000000;stroke-width:.77713"/>
            <rect x="104.52" y="171.88" width="14" height="7" ry="0" style="fill-opacity:.27823;fill:#000000;stroke-width:.77713"/>
            <rect x="122.19" y="171.88" width="14" height="7" ry="0" style="fill-opacity:.27823;fill:#000000;stroke-width:.77713"/>
            <rect x="51.531" y="171.88" width="14" height="7" ry="0" style="fill-opacity:.27823;fill:#000000;stroke-width:.77713"/>
            <path d="m49.886 118.88h-0.88832v14.03c0 0.26758 0.19774 0.48318 0.4439 0.48318s0.44442-0.2156 0.44442-0.48318z" style="fill:#f2f2f2;stroke-width:.43754"/>
            <path d="m47.608 118.95h-4.1868c-0.0849 0-0.16983 9.8e-4 -0.25425 3e-3 -0.0844 2e-3 -0.16832 6e-3 -0.25218 0.01-0.0839 4e-3 -0.16786 9e-3 -0.25115 0.0155-0.0833 6e-3 -0.16589 0.0139-0.24856 0.0222-0.0827 8e-3 -0.16497 0.0175-0.24701 0.0279-0.082 0.0104-0.16408 0.0217-0.24546 0.0341-0.0814 0.0124-0.16218 0.026-0.24288 0.0403s-0.16134 0.0292-0.24133 0.0455c-0.08 0.0163-0.15948 0.034-0.23875 0.0522-0.0793 0.0182-0.15817 0.0373-0.23668 0.0574-0.0785 0.0201-0.15637 0.0411-0.23409 0.0631-0.0777 0.022-0.15511 0.0449-0.23203 0.0687-0.0769 0.0238-0.15336 0.0488-0.22944 0.0744-0.0761 0.0257-0.15216 0.0522-0.22738 0.0796-0.0752 0.0274-0.14994 0.0555-0.22427 0.0848-0.0743 0.0292-0.14827 0.0595-0.22169 0.0904-0.0734 0.0309-0.1461 0.0624-0.2186 0.0951s-0.14447 0.0664-0.216 0.10077c-0.0715 0.0344-0.14288 0.0694-0.21343 0.10542-0.0705 0.036-0.14027 0.0729-0.2098 0.11059-0.0695 0.0377-0.13873 0.0765-0.20723 0.11575-0.0685 0.0393-0.13668 0.0795-0.20412 0.12041-0.0674 0.0409-0.13415 0.0826-0.2005 0.12506-0.0663 0.0425-0.13217 0.0857-0.19741 0.1297-0.0652 0.044-0.12968 0.0883-0.19378 0.13385-0.0641 0.0455-0.12775 0.092-0.19069 0.13901-0.0629 0.047-0.12532 0.0947-0.18707 0.14314-0.0618 0.0485-0.12291 0.0979-0.18345 0.14779-0.0605 0.0499-0.12054 0.1006-0.17983 0.15193-0.0593 0.0513-0.11767 0.10334-0.1757 0.15607-0.058 0.0527-0.11586 0.1061-0.1726 0.16019-0.0567 0.0541-0.11252 0.10891-0.16795 0.16434-0.0554 0.0554-0.11024 0.1112-0.16433 0.16794-0.0541 0.0567-0.10748 0.11405-0.1602 0.17208-0.0527 0.058-0.10473 0.11692-0.15606 0.17622-0.0513 0.0593-0.10201 0.1193-0.15193 0.17983-0.0499 0.0605-0.0993 0.12171-0.14779 0.18346-0.0485 0.0617-0.0961 0.12413-0.14315 0.18707-0.047 0.0629-0.093 0.12658-0.13849 0.19068-0.0455 0.0641-0.0904 0.12855-0.13436 0.19379-0.044 0.0652-0.0873 0.13105-0.12971 0.1974-0.0425 0.0663-0.0842 0.13307-0.12505 0.20051-0.0409 0.0674-0.0811 0.13562-0.12041 0.20412-0.0393 0.0685-0.0776 0.13769-0.11524 0.20722-0.0377 0.0695-0.0745 0.13926-0.11059 0.20981-0.036 0.0705-0.0716 0.14189-0.10593 0.21342-0.0344 0.0715-0.0676 0.14352-0.10026 0.21601-0.0327 0.0725-0.0646 0.14517-0.0956 0.21859-0.0309 0.0734-0.0612 0.14736-0.0904 0.22169-0.0292 0.0743-0.0573 0.14906-0.0848 0.22428-0.0274 0.0752-0.0539 0.15078-0.0796 0.22686-0.0256 0.0761-0.0506 0.15253-0.0744 0.22944-0.0238 0.0769-0.0468 0.15431-0.0687 0.23203-0.022 0.0777-0.043 0.1561-0.0631 0.23461-0.0201 0.0785-0.0392 0.15742-0.0574 0.23668-0.0182 0.0793-0.0354 0.15875-0.0517 0.23874-0.0163 0.08-0.0317 0.16063-0.046 0.24133s-0.0279 0.1615-0.0403 0.24288c-0.0124 0.0814-0.0237 0.16291-0.0341 0.24495-0.0104 0.082-0.0196 0.16485-0.0279 0.24753-8e-3 0.0827-0.0159 0.16528-0.0222 0.24856-6e-3 0.0833-0.0113 0.16677-0.0155 0.25063-4e-3 0.0839-8e-3 0.16828-0.01 0.2527-2e-3 0.0772-2e-3 0.15439-3e-3 0.23203 3e-3 2.3322 1.8808 4.209 4.2137 4.209h5.5718c2.3346 0 4.2142-1.8796 4.2142-4.2142z" style="fill:#f2f2f2;stroke-width:.76608"/>
            <path d="m65.27 118.88c3e-3 0.0696 5e-3 0.13958 5e-3 0.21002v9.7113c0 2.296-1.8484 4.1444-4.1444 4.1444h-5.7113c-2.296 0-4.1443-1.8484-4.1443-4.1444v-9.7113c0-0.0704 2e-3 -0.14046 5e-3 -0.21002" style="fill:#d35f5f;stroke-width:.75971"/>
            <path d="m139.61 118.88h4.1868c0.0849 0 0.16984 9.8e-4 0.25425 3e-3 0.0844 2e-3 0.16832 6e-3 0.25218 0.01 0.0839 4e-3 0.16787 9e-3 0.25115 0.0155 0.0833 6e-3 0.16589 0.0139 0.24856 0.0222 0.0827 8e-3 0.16498 0.0175 0.24701 0.0279 0.082 0.0104 0.16408 0.0217 0.24547 0.0341 0.0814 0.0124 0.16218 0.026 0.24288 0.0403s0.16133 0.0292 0.24133 0.0455 0.15948 0.034 0.23874 0.0522c0.0793 0.0182 0.15818 0.0373 0.23668 0.0574s0.15637 0.0411 0.2341 0.0631c0.0777 0.022 0.15511 0.0449 0.23202 0.0687 0.0769 0.0238 0.15336 0.0488 0.22945 0.0744 0.0761 0.0256 0.15215 0.0521 0.22737 0.0796 0.0752 0.0274 0.14994 0.0555 0.22428 0.0847 0.0743 0.0292 0.14826 0.0595 0.22169 0.0904 0.0734 0.031 0.1461 0.0624 0.21859 0.0951 0.0725 0.0327 0.14448 0.0664 0.21601 0.10077 0.0715 0.0344 0.14288 0.0694 0.21342 0.10542 0.0705 0.036 0.14027 0.0729 0.20981 0.11059 0.0695 0.0377 0.13872 0.0764 0.20722 0.11575 0.0685 0.0393 0.13669 0.0795 0.20412 0.12041 0.0674 0.0409 0.13416 0.0826 0.2005 0.12506 0.0663 0.0425 0.13217 0.0857 0.19741 0.1297 0.0652 0.044 0.12969 0.0883 0.19379 0.13384 0.0641 0.0455 0.12775 0.092 0.19068 0.13901 0.0629 0.047 0.12532 0.0947 0.18707 0.14315 0.0618 0.0485 0.12292 0.0979 0.18345 0.14779 0.0605 0.0499 0.12054 0.1006 0.17984 0.15193 0.0593 0.0513 0.11766 0.10334 0.1757 0.15606 0.058 0.0527 0.11585 0.10611 0.1726 0.1602 0.0567 0.0541 0.11252 0.1089 0.16794 0.16433 0.0554 0.0554 0.11025 0.11121 0.16434 0.16795 0.0541 0.0567 0.10747 0.11405 0.16019 0.17208 0.0527 0.058 0.10473 0.11692 0.15607 0.17622 0.0513 0.0593 0.10201 0.1193 0.15192 0.17983 0.0499 0.0605 0.0993 0.1217 0.1478 0.18345 0.0485 0.0617 0.0961 0.12414 0.14314 0.18707 0.047 0.0629 0.093 0.12659 0.1385 0.19069s0.0904 0.12855 0.13435 0.19379c0.044 0.0652 0.0873 0.13105 0.12971 0.1974 0.0425 0.0663 0.0842 0.13307 0.12506 0.20051 0.0409 0.0674 0.0811 0.13562 0.12041 0.20412 0.0393 0.0685 0.0776 0.13769 0.11523 0.20722 0.0377 0.0695 0.0746 0.13926 0.11059 0.2098 0.036 0.0705 0.0716 0.1419 0.10594 0.21343 0.0344 0.0715 0.0676 0.14352 0.10025 0.21601 0.0327 0.0725 0.0647 0.14516 0.0956 0.21859 0.0309 0.0734 0.0612 0.14735 0.0904 0.22169 0.0292 0.0743 0.0573 0.14905 0.0848 0.22428 0.0274 0.0752 0.0539 0.15078 0.0796 0.22685 0.0256 0.0761 0.0506 0.15253 0.0744 0.22945 0.0238 0.0769 0.0468 0.1543 0.0687 0.23202 0.022 0.0777 0.0429 0.15611 0.0631 0.23462 0.0201 0.0785 0.0392 0.15741 0.0574 0.23667 0.0182 0.0793 0.0354 0.15875 0.0517 0.23875s0.0317 0.16063 0.046 0.24133 0.0279 0.16149 0.0403 0.24288c0.0124 0.0814 0.0237 0.1629 0.0341 0.24494 0.0104 0.082 0.0196 0.16486 0.0279 0.24753 8e-3 0.0827 0.0159 0.16529 0.0222 0.24857 6e-3 0.0833 0.0113 0.16677 0.0155 0.25063 4e-3 0.0839 8e-3 0.16828 0.01 0.2527 2e-3 0.0772 2e-3 0.15439 3e-3 0.23202-3e-3 2.3322-1.8808 4.209-4.2137 4.209h-5.5718c-2.3346 0-4.2142-1.8796-4.2142-4.2142z" style="fill:#999999;stroke-width:.76608"/>
            <path d="m138.22 118.88h-0.88832v14.03c0 0.26758 0.19774 0.48318 0.4439 0.48318s0.44442-0.2156 0.44442-0.48318z" style="fill:#f2f2f2;stroke-width:.43754"/>
            <path d="m120.55 118.88h-0.88832v14.03c0 0.26758 0.19774 0.48318 0.4439 0.48318s0.44442-0.2156 0.44442-0.48318z" style="fill:#f2f2f2;stroke-width:.43754"/>
            <path d="m102.89 118.88h-0.88831v14.03c0 0.26758 0.19773 0.48318 0.44389 0.48318 0.24617 0 0.44442-0.2156 0.44442-0.48318z" style="fill:#f2f2f2;stroke-width:.43754"/>
            <path d="m85.22 118.88h-0.88832v14.03c0 0.26758 0.19774 0.48318 0.4439 0.48318s0.44442-0.2156 0.44442-0.48318z" style="fill:#f2f2f2;stroke-width:.43754"/>
            <path d="m67.553 118.88h-0.88831v14.03c0 0.26758 0.19773 0.48318 0.44389 0.48318s0.44442-0.2156 0.44442-0.48318z" style="fill:#f2f2f2;stroke-width:.43754"/>
            <path d="m135.94 118.88c3e-3 0.0696 5e-3 0.13958 5e-3 0.21002v9.7113c0 2.296-1.8484 4.1444-4.1444 4.1444h-5.7113c-2.296 0-4.1443-1.8484-4.1443-4.1444v-9.7113c0-0.0704 2e-3 -0.14046 5e-3 -0.21002" style="fill:#00ff00;stroke-width:.75971"/>
            <path d="m118.27 118.88c3e-3 0.0696 5e-3 0.13958 5e-3 0.21002v9.7113c0 2.296-1.8484 4.1444-4.1444 4.1444h-5.7113c-2.296 0-4.1443-1.8484-4.1443-4.1444v-9.7113c0-0.0704 2e-3 -0.14046 5e-3 -0.21002" style="fill:#ff00ff;stroke-width:.75971"/>
            <path d="m82.937 118.88c3e-3 0.0696 5e-3 0.13958 5e-3 0.21002v9.7113c0 2.296-1.8484 4.1444-4.1443 4.1444h-5.7113c-2.296 0-4.1444-1.8484-4.1444-4.1444v-9.7113c0-0.0704 2e-3 -0.14046 5e-3 -0.21002" style="fill:#ffdd55;stroke-width:.75971"/>
            <path d="m43.534 132.93c1.7584-0.0215 3.2424-1.1292 3.8251-2.6846h-3.8251zm-5.8152 0v-2.6846h-3.8251c0.58267 1.5554 2.0666 2.6632 3.8251 2.6846z" style="fill:#ff5555;stroke-width:.75971"/>
            <path d="m61.131 132.95c1.7584-0.0215 3.2424-1.1292 3.8251-2.6846h-3.8251zm-5.8152 0v-2.6846h-3.8251c0.58267 1.5554 2.0666 2.6632 3.8251 2.6846z" style="fill:#ff5555;stroke-width:.75971"/>
            <path d="m78.798 132.95c1.7584-0.0215 3.2424-1.1292 3.8251-2.6846h-3.8251zm-5.8152 0v-2.6846h-3.8251c0.58267 1.5554 2.0666 2.6632 3.8251 2.6846z" style="fill:#ff5555;stroke-width:.75971"/>
            <path d="m114.13 132.95c1.7584-0.0215 3.2424-1.1292 3.8251-2.6846h-3.8251zm-5.8152 0v-2.6846h-3.8251c0.58267 1.5554 2.0666 2.6632 3.8251 2.6846z" style="fill:#ff5555;stroke-width:.75971"/>
            <path d="m131.8 132.95c1.7584-0.0215 3.2424-1.1292 3.8251-2.6846h-3.8251zm-5.8152 0v-2.6846h-3.8251c0.58267 1.5554 2.0666 2.6632 3.8251 2.6846z" style="fill:#ff5555;stroke-width:.75971"/>
            <path d="m149.6 132.76c1.7584-0.0215 3.2424-1.1292 3.8251-2.6846h-3.8251zm-5.8152 0v-2.6846h-3.8251c0.58267 1.5554 2.0666 2.6632 3.8251 2.6846z" style="fill:#ff5555;stroke-width:.75971"/>
            <rect transform="scale(-1)" x="-118.27" y="-125.89" width="14" height="7" ry="0" style="fill-opacity:.27823;fill:#000000;stroke-width:.77713"/>
            <rect transform="scale(-1)" x="-82.947" y="-125.88" width="14" height="7" ry="0" style="fill-opacity:.27823;fill:#000000;stroke-width:.77713"/>
            <rect transform="scale(-1)" x="-65.28" y="-125.88" width="14" height="7" ry="0" style="fill-opacity:.27823;fill:#000000;stroke-width:.77713"/>
            <rect transform="scale(-1)" x="-135.94" y="-125.88" width="14" height="7" ry="0" style="fill-opacity:.27823;fill:#000000;stroke-width:.77713"/>
            <path d="m100.46 118.88c3e-3 0.0696 5e-3 0.13958 5e-3 0.21002v9.7113c0 2.296-1.8484 4.1444-4.1444 4.1444h-5.7113c-2.296 0-4.1443-1.8484-4.1443-4.1444v-9.7113c0-0.0704 2e-3 -0.14046 5e-3 -0.21002" style="fill:#d35f5f;stroke-width:.75971"/>
            <path d="m96.32 132.95c1.7584-0.0215 3.2424-1.1292 3.8251-2.6846h-3.8251zm-5.8152 0v-2.6846h-3.8251c0.58267 1.5554 2.0666 2.6632 3.8251 2.6846z" style="fill:#ff5555;stroke-width:.75971"/>
            <rect transform="scale(-1)" x="-100.47" y="-125.88" width="14" height="7" ry="0" style="fill-opacity:.27823;fill:#000000;stroke-width:.77713"/>
            <path transform="scale(.26458)" d="m528.36 676.08h15.824c0.6421 0 1.2802-0.0169 1.9141-0.0488 0.63389-0.0319 1.2638-0.0795 1.8887-0.14258 0.62492-0.0631 1.2461-0.14089 1.8613-0.23437 0.61518-0.0935 1.2254-0.20111 1.8301-0.32422 0.60469-0.12311 1.2035-0.26209 1.7969-0.41406 0.59342-0.15198 1.1803-0.31798 1.7617-0.49805 0.58138-0.18008 1.158-0.37462 1.7266-0.58203s1.1305-0.42813 1.6856-0.66211 1.1019-0.48045 1.6426-0.74024c0.5407-0.25978 1.074-0.53158 1.5996-0.8164 0.52561-0.28482 1.0449-0.58349 1.5547-0.89258 0.50975-0.3091 1.0108-0.63029 1.5039-0.96289 0.49313-0.33261 0.97738-0.6759 1.4531-1.0312 0.47575-0.35535 0.94281-0.72228 1.4004-1.0996 0.45759-0.37733 0.90508-0.76552 1.3438-1.1641s0.86813-0.80758 1.2871-1.2266c0.41899-0.41898 0.82803-0.84648 1.2266-1.2852s0.78673-0.88812 1.1641-1.3457c0.37732-0.45759 0.74426-0.92465 1.0996-1.4004 0.35535-0.47574 0.69864-0.95999 1.0312-1.4531 0.3326-0.49313 0.65379-0.99416 0.96289-1.5039 0.30909-0.50975 0.6058-1.0291 0.89062-1.5547 0.28483-0.52561 0.55858-1.0589 0.81836-1.5996 0.25979-0.5407 0.50626-1.0876 0.74024-1.6426s0.4547-1.117 0.66211-1.6856 0.40195-1.1432 0.58203-1.7246c0.0431-0.13907 0.0777-0.2821 0.11914-0.42187h-51.371z" style="fill-opacity:.27823;fill:#000000;stroke-width:2.9372"/>
            <path d="m47.859 178.88h-4.1868c-0.16989 0-0.33871-4e-3 -0.50643-0.0129-0.16772-8e-3 -0.33437-0.021-0.49971-0.0377-0.16534-0.0167-0.32971-0.0373-0.49248-0.062-0.16277-0.0247-0.32422-0.0532-0.48421-0.0858-0.15999-0.0326-0.31842-0.0693-0.47542-0.10955-0.15701-0.0402-0.3123-0.0841-0.46612-0.13178-0.15382-0.0476-0.30638-0.0991-0.45682-0.15399-0.15044-0.0549-0.29912-0.11328-0.44597-0.17519-0.14685-0.0619-0.29154-0.12712-0.4346-0.19585-0.14306-0.0687-0.28416-0.14065-0.42323-0.21601-0.13907-0.0754-0.27647-0.15438-0.41134-0.23616-0.13487-0.0818-0.26744-0.16676-0.39791-0.25476s-0.2586-0.17884-0.38447-0.27286c-0.12588-0.094-0.24945-0.1911-0.37052-0.29093-0.12107-0.0998-0.23947-0.20255-0.35553-0.30799-0.11606-0.10545-0.22969-0.21368-0.34055-0.32453-0.11086-0.11086-0.21908-0.22397-0.32453-0.34003-0.10545-0.11607-0.20816-0.23499-0.30799-0.35605-0.09983-0.12107-0.19692-0.24465-0.29094-0.37053-0.09402-0.12587-0.18485-0.25399-0.27285-0.38447-0.088-0.13047-0.17298-0.26304-0.25476-0.39791-0.08178-0.13487-0.16028-0.27227-0.23564-0.41134-0.07536-0.13907-0.14779-0.28017-0.21652-0.42323-0.06874-0.14306-0.13395-0.28775-0.19586-0.4346-0.06191-0.14685-0.12031-0.29553-0.17518-0.44597-0.05488-0.15044-0.10635-0.30247-0.154-0.4563-0.0114-0.0368-0.02055-0.0746-0.03152-0.11162h13.592z" style="fill-opacity:.27823;fill:#000000;stroke-width:.77713"/>
            <path d="m139.61 118.88h4.1868c0.16989 0 0.33871 4e-3 0.50643 0.0129 0.16772 8e-3 0.33437 0.021 0.49971 0.0377 0.16535 0.0167 0.32971 0.0373 0.49248 0.062s0.32422 0.0532 0.48421 0.0858 0.31841 0.0693 0.47542 0.10955c0.15701 0.0402 0.3123 0.0841 0.46612 0.13178 0.15383 0.0476 0.30638 0.0991 0.45682 0.15399 0.15044 0.0549 0.29912 0.11328 0.44597 0.17519 0.14685 0.0619 0.29154 0.12711 0.4346 0.19585 0.14306 0.0687 0.28416 0.14065 0.42323 0.21601 0.13907 0.0754 0.27647 0.15438 0.41134 0.23616 0.13487 0.0818 0.26744 0.16676 0.39791 0.25476 0.13048 0.088 0.2586 0.17883 0.38447 0.27285 0.12588 0.094 0.24946 0.19111 0.37052 0.29094 0.12107 0.0998 0.23947 0.20255 0.35554 0.30799 0.11606 0.10545 0.22969 0.21368 0.34055 0.32453 0.11085 0.11086 0.21908 0.22397 0.32453 0.34003 0.10544 0.11607 0.20815 0.23498 0.30799 0.35605 0.0998 0.12107 0.19692 0.24465 0.29094 0.37053 0.094 0.12587 0.18484 0.25399 0.27285 0.38447 0.088 0.13047 0.17298 0.26303 0.25476 0.39791 0.0818 0.13487 0.16029 0.27227 0.23564 0.41134 0.0754 0.13907 0.1478 0.28017 0.21653 0.42323 0.0687 0.14306 0.13395 0.28775 0.19585 0.4346s0.12031 0.29553 0.17519 0.44597c0.0549 0.15044 0.10635 0.30247 0.15399 0.4563 0.0114 0.0368 0.0206 0.0746 0.0315 0.11162h-13.592z" style="fill-opacity:.27823;fill:#000000;stroke-width:.77713"/>
            <path d="m47.608 118.95h-4.1868c-0.16989 0-0.33871 4e-3 -0.50643 0.0129-0.16772 8e-3 -0.33437 0.021-0.49971 0.0377-0.16535 0.0167-0.32971 0.0373-0.49248 0.062s-0.32422 0.0532-0.48421 0.0858-0.31841 0.0693-0.47542 0.10955c-0.15701 0.0402-0.3123 0.0841-0.46612 0.13178-0.15383 0.0476-0.30638 0.0991-0.45682 0.15399-0.15044 0.0549-0.29912 0.11328-0.44597 0.17519-0.14685 0.0619-0.29154 0.12711-0.4346 0.19585-0.14306 0.0687-0.28416 0.14065-0.42323 0.21601-0.13907 0.0754-0.27647 0.15438-0.41134 0.23616-0.13487 0.0818-0.26744 0.16676-0.39791 0.25476-0.13048 0.088-0.2586 0.17883-0.38447 0.27285-0.12588 0.094-0.24946 0.19111-0.37052 0.29094-0.12107 0.0998-0.23947 0.20255-0.35554 0.30799-0.11606 0.10545-0.22969 0.21368-0.34055 0.32453-0.11085 0.11086-0.21908 0.22397-0.32453 0.34003-0.10544 0.11607-0.20815 0.23498-0.30799 0.35605-0.0998 0.12107-0.19692 0.24465-0.29094 0.37053-0.094 0.12587-0.18484 0.25399-0.27285 0.38447-0.088 0.13047-0.17298 0.26303-0.25476 0.39791-0.0818 0.13487-0.16029 0.27227-0.23564 0.41134-0.0754 0.13907-0.1478 0.28017-0.21653 0.42323-0.0687 0.14306-0.13395 0.28775-0.19585 0.4346s-0.12031 0.29553-0.17519 0.44597c-0.0549 0.15044-0.10635 0.30247-0.15399 0.4563-0.0114 0.0368-0.0206 0.0746-0.0315 0.11162h13.592z" style="fill-opacity:.27823;fill:#000000;stroke-width:.77713"/>
      </g>
</svg>
